<svg xmlns="http://www.w3.org/2000/svg" viewBox="0 0 145 25.233"><defs><style>.a{fill:#fff;}</style></defs><path class="a" d="M-162.475,402.969-161.8,409s-1.846-5.662-7.939-5.662c-6.154,0-6.4,6.278-6.4,6.77,0,.554.308,6.585,6.462,6.585a8.6,8.6,0,0,0,8.062-5.416l-.985,6.339s-.123-1.539-1.169-1.292a21.914,21.914,0,0,1-6.031,1.046c-2.77,0-10.4-1.046-10.4-7.324s7.57-7.447,10.4-7.447a18.784,18.784,0,0,1,5.662,1.046,1.139,1.139,0,0,0,1.662-.677m3.139,0h7.755s-2.031.431-2.031,1.662v4.739h9.6v-4.493s-.246-1.969-1.969-1.969h7.632s-1.969.739-1.969,1.969V415.34A1.97,1.97,0,0,0-138.349,417h-7.632s1.969-.554,1.969-1.6v-5.354h-9.663v5.293a1.863,1.863,0,0,0,1.969,1.785h-7.632s1.969-.246,1.969-1.6V404.816a1.9,1.9,0,0,0-1.969-1.846M-137.488,417a4.928,4.928,0,0,0,3.077-2.277c.985-1.846,5.97-11.755,5.97-11.755h2.954l6.278,12.186s1.292,1.908,2.77,1.908h-9.17s2.585-.862,2.154-1.908-1.169-2.523-1.169-2.523h-7.447l-1.292,2.339s-.862,2.154,2.462,2.154h-6.462V417Zm5.6-5.108h6.708l-3.385-6.77Zm22.095-8.924h-7.755s2.031.677,2.031,1.846v7.262s-.062,5.477,7.878,5.477,7.57-4.862,7.57-4.862v-7.878a2.025,2.025,0,0,1,2.154-1.846h-5.108s2.031.123,2.154,1.785v7.939s.062,3.939-5.539,3.939-5.354-3.877-5.354-3.877v-7.939a1.756,1.756,0,0,1,1.969-1.846m12.924,0h5.662l6.093,10.155,6.155-10.155h5.17s-1.969.369-1.969,1.662V415.34a1.886,1.886,0,0,0,2.154,1.785h-7.755s1.908-.369,1.908-1.785v-9.909l-7.262,12.124-7.078-12.124v9.847a1.918,1.918,0,0,0,1.969,1.785h-5.17s2.277-.246,2.277-1.785V404.569c-.062,0-.062-1.231-2.154-1.6m39.7,0L-56,407.647s-1.6-3.754-4.554-3.939h-4.862v5.785H-61.6a2.66,2.66,0,0,0,2.277-2.831v6.278s-.615-2.77-2.277-2.77H-65.48v6.278h5.293s4.247-.062,5.108-3.816l-.985,4.493H-71.45s2.154-.431,2.154-1.662V404.754s-.308-1.846-1.969-1.846h14.094Zm3.939,0h17.11l.923,5.478s-1.785-4.493-3.508-4.8h-4.124V415.34a1.936,1.936,0,0,0,2.154,1.785h-8s2.154-.554,2.154-1.6V403.708h-3.939s-2.031,0-3.57,4.739Zm-70.284,21.541v-2.031h2.339a.925.925,0,0,1,1.046.985c0,.615-.308,1.046-1.231,1.046Zm-.923,3.262h.923V425.31h2.277a1.766,1.766,0,0,0,1.969-1.908c0-1.169-.677-1.785-2.031-1.785h-3.2v6.093h.062Zm10.4-2.585h-2.339l1.169-2.646Zm1.169,2.585h.985l-2.77-6.093H-115.7l-2.77,6.093h.985l.739-1.785h2.954Zm4-3.447v-1.908h2.585c.739,0,1.046.369,1.046.985,0,.431-.246.985-1.169.985h-2.523v-.062Zm-.923,3.447h.923v-2.585h2.339c.739,0,1.169.308,1.231,1.477a6.98,6.98,0,0,0,.123,1.169h.985c-.246-.246-.246-.554-.308-1.662a1.186,1.186,0,0,0-.923-1.292,1.487,1.487,0,0,0,1.046-1.539,1.527,1.527,0,0,0-1.662-1.6h-3.816c.062-.062.062,6.031.062,6.031Zm8.37-6.093h.923v6.093h-.923Zm4.493,4c0,1.046,1.046,1.354,1.969,1.354.985,0,1.662-.369,1.662-1.046,0-.554-.431-.739-1.169-.923l-1.354-.246c-.739-.123-1.846-.369-1.846-1.6,0-1.169.923-1.846,2.462-1.846,1.231,0,2.523.431,2.585,1.908h-.923c-.062-.431-.369-1.169-1.846-1.169-.677,0-1.477.308-1.477.985,0,.369.246.677.985.862l1.539.246c.431.062,1.846.308,1.846,1.539,0,1.539-1.354,1.969-2.646,1.969-1.354,0-2.831-.431-2.831-2.154h.985v.123Z" transform="translate(180.2 -402.6)"/></svg>