<svg id="a9f03770-a8c6-450b-bda4-1df64179af7c" data-name="圖層 2" xmlns="http://www.w3.org/2000/svg" width="400" height="115" viewBox="0 0 400 115">
  <defs>
    <style>
      .aae97807-bbde-400c-ad45-5027b107a4ba {
        fill: #373737;
      }

      .bece7160-560c-4b45-809a-6fd90253c714 {
        fill: #d7b788;
      }
    </style>
  </defs>
  <title>channel-logo-tw-dark</title>
  <g>
    <g>
      <path class="aae97807-bbde-400c-ad45-5027b107a4ba" d="M117,3.74s5.45,12.09,6.64,20.82l12.52-6.09L121.08,1.08Z"/>
      <path class="aae97807-bbde-400c-ad45-5027b107a4ba" d="M178.36,1.08s-2.13,12.66-6.81,21.58l3.25,1.9,17.38-17.9Z"/>
      <rect class="aae97807-bbde-400c-ad45-5027b107a4ba" x="147.38" y="49.82" width="11.71" height="10.68"/>
      <polygon class="aae97807-bbde-400c-ad45-5027b107a4ba" points="161.31 44.74 167.23 44.74 178.5 30.27 165 30.27 161.31 44.74"/>
      <polygon class="aae97807-bbde-400c-ad45-5027b107a4ba" points="145.64 44.74 136.52 30.27 130.92 30.27 133.17 44.74 145.64 44.74"/>
      <path class="aae97807-bbde-400c-ad45-5027b107a4ba" d="M162.55,82.19H139.29c-2.58,3.56-14.67,19.11-33.39,26.53l1.57,4.44s26.71-8.3,39.91-23.15v24.54h11.71V85.61C170.34,102.43,193.86,112,193.86,112l6.91-13.59C178.16,96.16,162.55,82.19,162.55,82.19Z"/>
      <rect class="aae97807-bbde-400c-ad45-5027b107a4ba" x="138.78" y="0.45" width="10.35" height="24.75"/>
      <rect class="aae97807-bbde-400c-ad45-5027b107a4ba" x="147.38" y="65.58" width="11.71" height="11.54"/>
      <rect class="aae97807-bbde-400c-ad45-5027b107a4ba" x="157.73" y="0.45" width="10.35" height="24.75"/>
      <path class="aae97807-bbde-400c-ad45-5027b107a4ba" d="M42.2,2.22S35.31,34,.41,56.55l2.41,4.19S33.34,47,50.89,17.83c0,0,12.39,25.35,38.12,41l8.06-14.72s-21.63-6.19-43.67-31l3.14-5.46Z"/>
      <rect class="aae97807-bbde-400c-ad45-5027b107a4ba" x="44.61" y="38.4" width="13.32" height="69.29"/>
      <rect class="aae97807-bbde-400c-ad45-5027b107a4ba" x="18.25" y="59.21" width="12.84" height="48.47"/>
      <path class="aae97807-bbde-400c-ad45-5027b107a4ba" d="M310.58,5.65v103.7h89V5.65Zm77.28,98.62H322.3V10.73h65.56Z"/>
      <polygon class="aae97807-bbde-400c-ad45-5027b107a4ba" points="341.61 34.34 351.8 34.34 354.06 26.09 365.87 26.09 365.87 34.34 375.69 34.34 375.69 26.09 375.69 21.01 365.87 21.01 355.44 21.01 356.96 15.42 346.49 13.9 344.79 21.01 331.83 21.01 331.83 26.09 343.58 26.09 341.61 34.34"/>
      <path class="aae97807-bbde-400c-ad45-5027b107a4ba" d="M342.83,62.51h11.94v7h10.47v-7h11.94V45.25H332.67V62.51h10.16Zm0-12.18H367v7.11H342.83Z"/>
      <rect class="aae97807-bbde-400c-ad45-5027b107a4ba" x="354.77" y="74.57" width="10.47" height="9.27"/>
      <rect class="aae97807-bbde-400c-ad45-5027b107a4ba" x="354.77" y="88.92" width="10.47" height="11.93"/>
      <rect class="aae97807-bbde-400c-ad45-5027b107a4ba" x="330.94" y="74.57" width="10.64" height="9.27"/>
      <g>
        <g>
          <path class="aae97807-bbde-400c-ad45-5027b107a4ba" d="M237.35,23.86s-2.49,24.31-21,33.64l2.51,3.93s23.24-8.59,31.1-31.48Z"/>
          <path class="aae97807-bbde-400c-ad45-5027b107a4ba" d="M288.35,16H261.12V0H248.49V16H211V39.47h11.85V21.07h36.74V47.55s-1,9.46,8.09,9.46h15.22s7.48.43,7.48-8.52V38.61l-4.72-2v4.2S286,46,280.74,46H272.6a2,2,0,0,1-2-2v-23h17.7l.06,11.84,7.86,3.39h3.93V16Z"/>
        </g>
        <g>
          <path class="aae97807-bbde-400c-ad45-5027b107a4ba" d="M248.74,69.59h11.63a87.54,87.54,0,0,0,1-9.11,6.82,6.82,0,0,1-5-4.63h-8.2A43.17,43.17,0,0,1,248.74,69.59Z"/>
          <path class="aae97807-bbde-400c-ad45-5027b107a4ba" d="M262.1,74.69H247.83c-2.84,12.27-12,27.36-38.23,35l1.46,5.33a50,50,0,0,0,13.84-2.1l.51-.16c.41-.12.82-.24,1.24-.38l1.18-.41.69-.24c11.1-4.06,24.44-13.13,30.16-33.42,8.76,28,35.84,36.2,35.84,36.2l7.23-14.6C274.7,96.7,264.43,79.41,262.1,74.69Z"/>
        </g>
        <path class="aae97807-bbde-400c-ad45-5027b107a4ba" d="M290.9,57.18s2.72,6,3.32,10.41l3.27-1.6A2.53,2.53,0,0,0,298.3,62l-4.64-5.35a1.27,1.27,0,0,0-1.65-.24Z"/>
      </g>
    </g>
    <g>
      <path class="bece7160-560c-4b45-809a-6fd90253c714" d="M107.26,77.11v5.08h92.57V77.11Zm9.63-16.61v5.08H190.2V60.5Zm-5.24-15.76v5.08h83.78V44.74ZM199.1,30.27V25.2H108v5.07Z"/>
      <rect class="bece7160-560c-4b45-809a-6fd90253c714" x="57.92" y="68.73" width="26.16" height="5.08"/>
      <rect class="bece7160-560c-4b45-809a-6fd90253c714" x="3.03" y="107.69" width="90.27" height="5.09"/>
      <g>
        <path class="bece7160-560c-4b45-809a-6fd90253c714" d="M325,34.34v5.07h60.11V34.34Z"/>
        <path class="bece7160-560c-4b45-809a-6fd90253c714" d="M385.14,88.92V83.84h-59.9v5.08Zm-54.2-19.43v5.08H382.1V69.49Z"/>
      </g>
      <rect class="bece7160-560c-4b45-809a-6fd90253c714" x="209.6" y="69.59" width="91.11" height="5.09"/>
    </g>
  </g>
</svg>
