<svg id="b2c5e08a-83af-4bb7-a477-6b0c9993903c" data-name="圖層 2" xmlns="http://www.w3.org/2000/svg" width="315" height="115" viewBox="0 0 315 115">
  <defs>
    <style>
      .fdc95f84-676f-4f5a-833c-343fa3b429f8 {
        fill: #373737;
      }

      .e8c934df-1c90-4aeb-ad8b-a2b94fed33a6 {
        fill: #d7b788;
      }
    </style>
  </defs>
  <title>channel-logo-tweg-dark</title>
  <g>
    <g>
      <g>
        <path class="fdc95f84-676f-4f5a-833c-343fa3b429f8" d="M92.3,3.83s4.29,9.49,5.22,16.36l9.83-4.79L95.51,1.74Z"/>
        <path class="fdc95f84-676f-4f5a-833c-343fa3b429f8" d="M140.5,1.74s-1.67,10-5.34,17l2.55,1.5L151.36,6.13Z"/>
        <rect class="fdc95f84-676f-4f5a-833c-343fa3b429f8" x="116.16" y="40.03" width="9.2" height="8.39"/>
        <polygon class="fdc95f84-676f-4f5a-833c-343fa3b429f8" points="127.11 36.04 131.76 36.04 140.61 24.67 130 24.67 127.11 36.04"/>
        <polygon class="fdc95f84-676f-4f5a-833c-343fa3b429f8" points="114.8 36.04 107.64 24.67 103.23 24.67 105 36.04 114.8 36.04"/>
        <path class="fdc95f84-676f-4f5a-833c-343fa3b429f8" d="M128.08,65.45H109.81c-2,2.8-11.53,15-26.23,20.84l1.23,3.49s21-6.52,31.35-18.18V90.88h9.21V68.14c8.83,13.21,27.31,20.74,27.31,20.74l5.43-10.66A58,58,0,0,1,128.08,65.45Z"/>
        <rect class="fdc95f84-676f-4f5a-833c-343fa3b429f8" x="109.41" y="1.24" width="8.13" height="19.44"/>
        <rect class="fdc95f84-676f-4f5a-833c-343fa3b429f8" x="116.16" y="52.4" width="9.2" height="9.06"/>
        <rect class="fdc95f84-676f-4f5a-833c-343fa3b429f8" x="124.29" y="1.24" width="8.13" height="19.44"/>
        <path class="fdc95f84-676f-4f5a-833c-343fa3b429f8" d="M33.54,2.64S28.13,27.6.72,45.31L2.61,48.6s24-10.83,37.76-33.7c0,0,9.73,19.91,29.94,32.21l6.33-11.57s-17-4.86-34.3-24.33l2.47-4.29Z"/>
        <rect class="fdc95f84-676f-4f5a-833c-343fa3b429f8" x="35.43" y="31.05" width="10.46" height="54.43"/>
        <rect class="fdc95f84-676f-4f5a-833c-343fa3b429f8" x="14.73" y="47.41" width="10.09" height="38.08"/>
        <path class="fdc95f84-676f-4f5a-833c-343fa3b429f8" d="M244.36,5.33V86.79h69.92V5.33ZM305.07,82.8h-51.5V9.32h51.5Z"/>
        <polygon class="fdc95f84-676f-4f5a-833c-343fa3b429f8" points="268.74 27.86 276.75 27.86 278.52 21.38 287.79 21.38 287.79 27.86 295.51 27.86 295.51 21.38 295.51 17.39 287.79 17.39 279.6 17.39 280.8 13.01 272.58 11.81 271.24 17.39 261.06 17.39 261.06 21.38 270.29 21.38 268.74 27.86"/>
        <path class="fdc95f84-676f-4f5a-833c-343fa3b429f8" d="M269.7,50h9.37v5.48h8.23V50h9.38V36.44h-35V50h8Zm0-9.57h19V46h-19Z"/>
        <rect class="fdc95f84-676f-4f5a-833c-343fa3b429f8" x="279.07" y="59.47" width="8.23" height="7.28"/>
        <rect class="fdc95f84-676f-4f5a-833c-343fa3b429f8" x="279.07" y="70.74" width="8.23" height="9.37"/>
        <rect class="fdc95f84-676f-4f5a-833c-343fa3b429f8" x="260.35" y="59.47" width="8.35" height="7.28"/>
        <g>
          <g>
            <path class="fdc95f84-676f-4f5a-833c-343fa3b429f8" d="M186.84,19.64s-2,19.09-16.54,26.42l2,3.09s18.25-6.75,24.43-24.73Z"/>
            <path class="fdc95f84-676f-4f5a-833c-343fa3b429f8" d="M226.9,13.45H205.51V.89h-9.92V13.45H166.11V31.9h9.31V17.44h28.86V38.25s-.82,7.43,6.36,7.43h12s5.87.33,5.87-6.7V31.22l-3.7-1.6v3.31s.3,4.11-3.83,4.11h-6.4A1.52,1.52,0,0,1,213,35.51V17.44h13.9l0,9.31,6.18,2.66h3.08v-16Z"/>
          </g>
          <g>
            <path class="fdc95f84-676f-4f5a-833c-343fa3b429f8" d="M195.79,55.56h9.14a72,72,0,0,0,.78-7.16,5.37,5.37,0,0,1-4-3.64h-6.44A34.19,34.19,0,0,1,195.79,55.56Z"/>
            <path class="fdc95f84-676f-4f5a-833c-343fa3b429f8" d="M206.28,59.56H195.07c-2.23,9.64-9.39,21.5-30,27.48l1.15,4.19a39.39,39.39,0,0,0,10.87-1.65l.4-.12,1-.31.93-.32.54-.18c8.72-3.2,19.2-10.32,23.69-26.26,6.89,22,28.16,28.44,28.16,28.44l5.68-11.47C216.18,76.86,208.11,63.27,206.28,59.56Z"/>
          </g>
          <path class="fdc95f84-676f-4f5a-833c-343fa3b429f8" d="M228.9,45.81A37.61,37.61,0,0,1,231.51,54l2.57-1.25a2,2,0,0,0,.64-3.11l-3.64-4.2a1,1,0,0,0-1.31-.18Z"/>
        </g>
      </g>
      <g>
        <path class="e8c934df-1c90-4aeb-ad8b-a2b94fed33a6" d="M84.65,61.47v4h72.72v-4Zm7.57-13v4H149.8v-4ZM88.1,36v4h65.81V36Zm68.69-11.37v-4H85.22v4Z"/>
        <rect class="e8c934df-1c90-4aeb-ad8b-a2b94fed33a6" x="45.89" y="54.88" width="20.55" height="3.99"/>
        <rect class="e8c934df-1c90-4aeb-ad8b-a2b94fed33a6" x="2.77" y="85.48" width="70.91" height="4"/>
        <g>
          <path class="e8c934df-1c90-4aeb-ad8b-a2b94fed33a6" d="M255.71,27.86v4h47.22v-4Z"/>
          <path class="e8c934df-1c90-4aeb-ad8b-a2b94fed33a6" d="M302.93,70.74v-4H255.88v4ZM260.35,55.48v4h40.19v-4Z"/>
        </g>
        <rect class="e8c934df-1c90-4aeb-ad8b-a2b94fed33a6" x="165.04" y="55.56" width="71.57" height="4"/>
      </g>
    </g>
    <g>
      <g>
        <path class="fdc95f84-676f-4f5a-833c-343fa3b429f8" d="M104.22,108.28a2.33,2.33,0,0,0-2.45-1.32,5.17,5.17,0,0,0-2.61.81l.31.8a3,3,0,0,1,2.14-1.13c1,0,1.46.63,1.48,2-.3.07-.91.18-1.53.27-1.9.29-2.78,1.06-2.78,2.48,0,1.15.82,1.86,2.15,1.86a3.56,3.56,0,0,0,2.28-1v1h1.21v-4.16A4.66,4.66,0,0,0,104.22,108.28Zm-1.12,4.35a2.88,2.88,0,0,1-1.63.63,1.29,1.29,0,0,1-1.32-1.34,1.6,1.6,0,0,1,.95-1.52,2.74,2.74,0,0,1,1-.25c.64-.13.76-.15,1-.23Z"/>
        <path class="fdc95f84-676f-4f5a-833c-343fa3b429f8" d="M135.85,108.37a2.62,2.62,0,0,0-1.87-.84c-.75,0-1.22.41-1.22,1a.89.89,0,0,0,.39.79,3.32,3.32,0,0,0,1.23.47,3.81,3.81,0,0,1,1.41.6,1.92,1.92,0,0,1,.71,1.64c0,1.3-1,2-2.81,2a4.09,4.09,0,0,1-2.33-.7l.32-.71a2.77,2.77,0,0,0,2.1.88c.88,0,1.48-.45,1.48-1.11a1,1,0,0,0-.5-1,3.8,3.8,0,0,0-1.2-.42c-1.34-.34-2-1-2-2.09s.91-2,2.44-2a4,4,0,0,1,2.15.67Z"/>
        <path class="fdc95f84-676f-4f5a-833c-343fa3b429f8" d="M147.65,105.85a2.3,2.3,0,0,1,.19-1.11c.27-.49.84-.73,1.78-.73a2.87,2.87,0,0,1,.85.1v.45a4.74,4.74,0,0,0-.65,0,.74.74,0,0,0-.82.59,2.93,2.93,0,0,0-.05.75v1.26h1.52v.5H149V114h-1.3v-6.37h-1.31v-.5h1.31Z"/>
        <path class="fdc95f84-676f-4f5a-833c-343fa3b429f8" d="M163.49,107c-1.93,0-3.2,1.38-3.2,3.5s1.25,3.66,3.2,3.66,3.13-1.36,3.13-3.65S165.4,107,163.49,107Zm0,6.63c-1.05,0-1.87-1.37-1.87-3.12s.85-3,1.88-3,1.77,1.3,1.77,2.93S164.5,113.58,163.49,113.58Z"/>
        <path class="fdc95f84-676f-4f5a-833c-343fa3b429f8" d="M215,113.47c-1.2,0-2.07-1.24-2.07-3v-.19h4.68a3.46,3.46,0,0,0-.74-2.29,2.88,2.88,0,0,0-2.28-1c-1.8,0-3,1.41-3,3.53,0,2.3,1.09,3.53,3.14,3.53a3.09,3.09,0,0,0,2.66-1.31l-.3-.35A2.68,2.68,0,0,1,215,113.47Zm-.45-6c.89,0,1.51.94,1.55,2.31H213C213.13,108.36,213.72,107.51,214.53,107.51Z"/>
        <path class="fdc95f84-676f-4f5a-833c-343fa3b429f8" d="M246.59,108.37a2.62,2.62,0,0,0-1.87-.84c-.74,0-1.21.41-1.21,1a.9.9,0,0,0,.38.79,3.32,3.32,0,0,0,1.24.47,4,4,0,0,1,1.41.6,1.94,1.94,0,0,1,.7,1.64c0,1.3-1,2-2.8,2a4,4,0,0,1-2.33-.7l.31-.71a2.77,2.77,0,0,0,2.1.88c.88,0,1.48-.45,1.48-1.11a1,1,0,0,0-.5-1,3.71,3.71,0,0,0-1.19-.42c-1.35-.34-2-1-2-2.09s.9-2,2.44-2a4,4,0,0,1,2.14.67Z"/>
        <polygon class="fdc95f84-676f-4f5a-833c-343fa3b429f8" points="67.76 104.61 67.76 105.11 70.84 105.11 72.29 105.11 75.36 105.11 75.36 104.61 67.76 104.61"/>
        <path class="fdc95f84-676f-4f5a-833c-343fa3b429f8" d="M88.57,107c-1.06,0-1.85.76-2.25,2.16v1.16a1.93,1.93,0,0,1,2.13-2,1,1,0,0,1,.35,0l.08,0h0l.16-1.3A1.63,1.63,0,0,0,88.57,107Z"/>
        <path class="fdc95f84-676f-4f5a-833c-343fa3b429f8" d="M181.05,107c-1.06,0-1.84.76-2.24,2.16v1.16a1.93,1.93,0,0,1,2.12-2,1,1,0,0,1,.35,0l.09,0h0l.17-1.3A1.7,1.7,0,0,0,181.05,107Z"/>
        <path class="fdc95f84-676f-4f5a-833c-343fa3b429f8" d="M232,107c-1.06,0-1.85.76-2.24,2.16v1.16a1.92,1.92,0,0,1,2.12-2,1,1,0,0,1,.35,0l.09,0h0l.16-1.3A1.63,1.63,0,0,0,232,107Z"/>
        <path class="fdc95f84-676f-4f5a-833c-343fa3b429f8" d="M118.44,107a1.9,1.9,0,0,0-1.81,1v1.51a2.65,2.65,0,0,1,.34-1.19,1.37,1.37,0,0,1,1.17-.83,1.35,1.35,0,0,1,1.34,1,4.72,4.72,0,0,1,.11,1V114h1.31v-4.47A2.24,2.24,0,0,0,118.44,107Z"/>
        <path class="fdc95f84-676f-4f5a-833c-343fa3b429f8" d="M198.87,107a2.17,2.17,0,0,0-1.93,1.28,2,2,0,0,0-2-1.28,2,2,0,0,0-1.76,1v1.51c0-1,.71-2,1.43-2s1.19.72,1.19,2V114h1.31v-4.47a3.59,3.59,0,0,1,.31-1.16,1.35,1.35,0,0,1,1.12-.85,1.22,1.22,0,0,1,1.1,1.08,5,5,0,0,1,.1,1V114h1.31v-4.41C201.08,108,200.28,107,198.87,107Z"/>
      </g>
      <g>
        <rect class="e8c934df-1c90-4aeb-ad8b-a2b94fed33a6" x="70.84" y="105.11" width="1.46" height="8.87"/>
        <rect class="e8c934df-1c90-4aeb-ad8b-a2b94fed33a6" x="85.02" y="107.11" width="1.3" height="6.87"/>
        <rect class="e8c934df-1c90-4aeb-ad8b-a2b94fed33a6" x="177.51" y="107.11" width="1.3" height="6.87"/>
        <rect class="e8c934df-1c90-4aeb-ad8b-a2b94fed33a6" x="228.42" y="107.11" width="1.3" height="6.87"/>
        <rect class="e8c934df-1c90-4aeb-ad8b-a2b94fed33a6" x="115.31" y="107.11" width="1.32" height="6.87"/>
        <rect class="e8c934df-1c90-4aeb-ad8b-a2b94fed33a6" x="191.88" y="107.11" width="1.32" height="6.87"/>
      </g>
    </g>
  </g>
</svg>
