<svg id="bc345ef7-326b-4cf8-9f4d-0c106fd623a4" data-name="圖層 2" xmlns="http://www.w3.org/2000/svg" width="195" height="70" viewBox="0 0 195 70">
  <defs>
    <style>
      .ea9a5bc8-06c3-46cc-8545-2b351984910f {
        fill: #d70c18;
      }

      .bdf98b3f-1720-45d1-b644-92b47bba60ec {
        fill: #fff;
      }
    </style>
  </defs>
  <title>cw-logo</title>
  <g>
    <rect class="ea9a5bc8-06c3-46cc-8545-2b351984910f" width="195" height="70"/>
    <g>
      <path class="bdf98b3f-1720-45d1-b644-92b47bba60ec" d="M18.42,18.09A5.42,5.42,0,0,0,23.78,20c5.32-1.3,10.44-3.19,15.89-4.25,2.76-1.54,5.85-2.46,8.7-3.86a3.28,3.28,0,0,0,1.16-3.48c-.44-1.3-1.84-1.64-2.8-2.32-2.08-.29-4.25-.53-5.9.82C39.67,8.38,37.74,8.82,36.29,10c-.62.48-1.54.38-2.07,1.16-3.38.43-6.38.72-9,2.89-2.61-.09-4.5.53-7,.78C16.93,15.92,18.71,16.83,18.42,18.09Z"/>
      <path class="bdf98b3f-1720-45d1-b644-92b47bba60ec" d="M99.47,56.34c-.19-1.74-.77-3.38-1.06-4.88a86.54,86.54,0,0,1-1-13.33c.1-3-.67-6.66-1.06-9.27-.87-1.93.34-3.86-.58-5.79-.44-1-.15-2.32-.24-3.48.38-1.11,1.54-1.11,2.22-1.89,2.51-.72,5.46-1.64,7.87-.09,2,1.64,5.32.91,7.3-.24.58-1.21,1.54-2.42,1.4-3.82-1-2.13-3.72-2.13-5.8-2.66h-1.25c-3-1.64-6,.44-8.7,1.26-1.83.82-4.25.19-5.79,1.74-2.08-.15-3.58,1.16-5.56,1.16-1,1-2.46.48-3.48,1.3a19.6,19.6,0,0,0-3.62.58c-.53,1.06-2,.63-2.65,1.35-1.79.63-3.73,1.07-5.56,1.55-3.24,1.11-6.86.63-10.19,1.25A5.17,5.17,0,0,0,59,22.24c-.38,1.84,1.74,1.84,2.47,3.14,1.16,1.84,3.33,1.84,5,2.9.68.58,1.79.1,2.32,1a11.43,11.43,0,0,0,6.86.38c1.74-1.16,3.82-1.83,5.22-3.62,1.83-.43,2.94-2.37,4.49-3.14,1.16-.19,2.22-1.5,3.38-.68.63.29.24.78.34,1.41a4.16,4.16,0,0,1,.09,3.23v.92c.58,11.06-.38,21.59-1.35,32.69-.63,1.93.58,3.53.58,5.22.87.73,1.21,2.12,2.51,2.56,1.89.63,4.78.92,6.28-.72,2.95-1.31,2-5,3-7.54C99.57,58.8,100.39,57.4,99.47,56.34Z"/>
      <path class="bdf98b3f-1720-45d1-b644-92b47bba60ec" d="M73.63,60c-.39-.63-1.3-1-2-1.5-2.71-.48-5-2-7.29-3.57-1.31.43-1.79-1.16-2.9-1.31-.53-.62-1.55-.82-2.08-1.35-2.46-.63-4-2.85-5.94-4-3.57-1.64-6-5.84-8.69-8.59-1.74-1.6-4-3.82-3.92-6.57.78-1.74,2.85-2.32,4.4-3.14,1.93-1.45,4.68-2.27,5.79-4.54a2.88,2.88,0,0,0-.14-2.66c-.63-1.3-2.22-1.25-3.48-1.74-3.09-.29-5.31,2-7,3.82-1.06.1-2.22,1.35-3.24.24a12.9,12.9,0,0,0-2-3.57c-.48-.39-1.25-.1-1.64-.73-1.06.49-2.22.05-3.23.34a3.6,3.6,0,0,0-2,2c.29,2-1,3.67-.2,5.55.29,2.32-2,3.77-3.62,4.79-2.75.38-4.35,2.8-7,3.33-1.06.53-2.32.63-3.38,1.06-1.16.24-3.19-.19-3.72,1.26a6,6,0,0,0,1.74,3.38c.63,1.4,2.46,1.88,3.72,2.8,1.88.63,3.76-.29,5.55-.15.68,2.52.48,5.12-1.25,7a9.33,9.33,0,0,1-2.81,4.2c0,.77-1.06.87-1.15,1.59-.39.2-.73.63-1.26.49-1.11-1.21-2.56-1.16-4-.92A2.09,2.09,0,0,0,9.63,59c-1.54.72,0,1.83-.48,3,0,.73,1.11,1,.72,1.88a4.63,4.63,0,0,0,3.92,2.9c2.89,1.6,5.31-.43,8-1,3.09-2.61,6.14-5.7,7.78-9.47.05-1,.77-1.26.82-2.22.73-.78.44-2,1.16-2.8.68-1.21.48-2.9,1-4.06a7.42,7.42,0,0,1,1.16-4.15c2.18.19,2.76,2.17,4.4,3.23.43,1.11,1.83,1.5,2.22,2.47,3.33,4.2,5.89,8.78,9.27,12.94l5.32,4.06c4.73,1,10.09-.29,14.87-.44,1.5-.87,3.62-.34,5-1.64.19-.63.82-1.26.58-2C74.88,61.12,74.5,60.2,73.63,60Z"/>
      <path class="bdf98b3f-1720-45d1-b644-92b47bba60ec" d="M118.11,34.66c-3.18-.2-7-2.27-9.85,0-1.25,3.52.92,7.05,3.72,9.61.72.48,1.35.77,1.4,1.64a14.81,14.81,0,0,0,7.29.43c.1-1.3,1.84-.87,2-2.07,1.5-3.58-.91-6.52-3.13-8.94A2.72,2.72,0,0,1,118.11,34.66Z"/>
      <path class="bdf98b3f-1720-45d1-b644-92b47bba60ec" d="M161.4,46l.27.31a3.82,3.82,0,0,0,.55.11l8.84-.07a1,1,0,0,0,.6-.35.47.47,0,0,1,.3.1c1.94.06,3.78,0,5.74,0l.22.18v2.85c-.16.36.2,1.07-.32,1.26l-4.65,0a.63.63,0,0,0-.5.32c-.1.29.15.42.32.55l7.48,0,5-.06.25-.25c.14-.26-.11-.45-.25-.59l-5-.08-.15-.17c0-1.37,0-2.51.05-3.85l.1-.18s.16,0,.2-.07c2-.08,4,0,5.91-.1.24-.06.28-.3.25-.52s-.19-.17-.28-.25c-2-.14-4,0-6.05-.1l-.1-.14V42.07c-.28-.63-1-.57-1.57-.5-1.1.24-.49,1.6-.65,2.36-.14.4.14,1-.25,1.22l-4.74,0c-.47.08-1,0-1.41.24-3.64,0-6.12,0-9.71.11C161.65,45.59,161.53,45.85,161.4,46Z"/>
      <path class="bdf98b3f-1720-45d1-b644-92b47bba60ec" d="M137.15,44.57c-1.54.07-3.23,0-4.7.07-.23,0-.26.29-.27.48s.17.27.34.32l3.14,0,7.79-.05a.46.46,0,0,0,.42-.25c0-.2.06-.35-.11-.49-1.24-.25-2.54,0-3.83-.1l-.23-.18a19.13,19.13,0,0,0-.07-2.4c-.28-.52-.87-.42-1.37-.48-1.42.19-.6,1.87-.82,2.78A.41.41,0,0,1,137.15,44.57Z"/>
      <path class="bdf98b3f-1720-45d1-b644-92b47bba60ec" d="M170,43.46l.72-.08a.43.43,0,0,0,.22-.59.4.4,0,0,0-.27-.2c-1.7-.08-3.52,0-5.16-.05a13.15,13.15,0,0,0-2.81.1.45.45,0,0,0-.18.47c.11.13.19.26.35.3Z"/>
      <path class="bdf98b3f-1720-45d1-b644-92b47bba60ec" d="M137.05,45.81a1.19,1.19,0,0,0-1.47.12,31.38,31.38,0,0,1-3.13,5.73l0,.35a.79.79,0,0,0,.62.38c.94-.41,1.53-1.49,2.18-2.29a.72.72,0,0,1,.47-.42c.58.46,1,1.08,1.59,1.56a.75.75,0,0,0,.84-.24c0-.1.12-.24.06-.32-.22-.67-1.06-1.28-1.35-2-.78-.74.38-1.38.48-2.09A.75.75,0,0,0,137.05,45.81Z"/>
      <path class="bdf98b3f-1720-45d1-b644-92b47bba60ec" d="M141.39,45.93a1.14,1.14,0,0,0-.72.48,15.45,15.45,0,0,1-1.84,4.44.56.56,0,0,0,.2.67c1.06.54,1.16-.86,1.81-1.22.52.5.95,1.29,1.5,1.71a1,1,0,0,0,.79-.17c.09-.16.2-.32.1-.5a12.75,12.75,0,0,1-1.39-2.85c.28-.65.9-1.2.84-1.94C142.45,46,141.89,46,141.39,45.93Z"/>
      <path class="bdf98b3f-1720-45d1-b644-92b47bba60ec" d="M170.61,48.56l-7.55,0-.17,0c-.29,0-.4.39-.35.63a1.2,1.2,0,0,0,.38.28h7.3l.42,0c.22-.05.31-.29.35-.47S170.76,48.64,170.61,48.56Z"/>
      <path class="bdf98b3f-1720-45d1-b644-92b47bba60ec" d="M170.51,51.51c-2.52,0-4.89,0-7.37,0-.21,0-.45,0-.57.24a.47.47,0,0,0,.22.6l7.43,0a.62.62,0,0,0,.57-.17.44.44,0,0,0,.07-.41A.62.62,0,0,0,170.51,51.51Z"/>
      <path class="bdf98b3f-1720-45d1-b644-92b47bba60ec" d="M132.28,54.79c1.33.13,2.64,0,4,.1.09,0,.07.14.07.21a16.76,16.76,0,0,1-3.45,4.21c-.23.18-.55.37-.65.63a.52.52,0,0,0,.13.45c.84.45,1.48-.44,2-.87.08-.13.36-.13.37-.35a22,22,0,0,0,2.09-2.12c0-.16.26-.14.25-.32.26-.14.27-.68.59-.41a22.93,22.93,0,0,0-.32,4.52l.07.44a1,1,0,0,0,.7.53c.54,0,1.19,0,1.46-.53a27.45,27.45,0,0,0-.14-4.65l.11-.07A32.09,32.09,0,0,0,143,59h.59c.23-.14.47-.38.32-.69a15.21,15.21,0,0,1-3.48-3c0-.15-.29-.34,0-.43l3.45-.07a.55.55,0,0,0,.35-.52c0-.19-.25-.25-.39-.32H140.1c-.13-.06-.32,0-.4-.13-.2-.75.27-1.39-.29-2-.36-.38-1-.29-1.49-.21-.86.35-.4,1.37-.53,2.09,0,.1-.17.25-.3.23l-4.64.05-.3.17C132,54.4,132.14,54.66,132.28,54.79Z"/>
      <path class="bdf98b3f-1720-45d1-b644-92b47bba60ec" d="M177.05,52.38a1.5,1.5,0,0,0-1.05-.23c-.29.1-.65.21-.73.55,0,2.29-.08,4.88-.11,7.13l.08.37a1.84,1.84,0,0,0,1.63,1c2.15-.09,4.71.39,6.64-.42a2.7,2.7,0,0,0,1.19-2.44,1.37,1.37,0,0,0-1.29-.56,1.21,1.21,0,0,0-.9.59,2.4,2.4,0,0,1-1.54,2h-3.1c-.2-.09-.47-.13-.58-.38-.07-2,0-3.75,0-5.88C177.13,53.49,177.53,52.81,177.05,52.38Z"/>
      <path class="bdf98b3f-1720-45d1-b644-92b47bba60ec" d="M180.87,57.22a1.64,1.64,0,0,0,1.25-.38.79.79,0,0,0,.17-.69,11.38,11.38,0,0,0-1.52-2.48,7,7,0,0,0-1.19-1.32c-.36-.06-.84-.07-1,.27-.15.84.71,1.37.9,2.13C180,55.54,179.61,57,180.87,57.22Z"/>
      <path class="bdf98b3f-1720-45d1-b644-92b47bba60ec" d="M185.5,58.09a1.72,1.72,0,0,0,1.49-.35,1,1,0,0,0,.17-.9c-.58-.82-1.24-1.61-1.91-2.4-.42-.37-.76-1-1.29-1.25a1.09,1.09,0,0,0-.82.1.6.6,0,0,0-.15.62,16.58,16.58,0,0,1,1.53,2.41C184.8,56.93,184.83,57.73,185.5,58.09Z"/>
      <path class="bdf98b3f-1720-45d1-b644-92b47bba60ec" d="M162.62,60.45a1.78,1.78,0,0,0,1,.62,48.15,48.15,0,0,0,5.53.08l.83-.28a1.52,1.52,0,0,0,.79-1.29,3.22,3.22,0,0,0,1.22.17c1.16-.36.94-1.72,1.26-2.63a12.37,12.37,0,0,0,.35-3.13,1.08,1.08,0,0,0-.74-.39c-.26.08-.62.07-.72.42a11.73,11.73,0,0,1-1.05,3.75c-.1.16-.18.4-.34.32-.35-1.38.76-3.77-1.37-4h-4.23a3.81,3.81,0,0,0-1.88.24,1.72,1.72,0,0,0-.7,1l-.07,4.76Zm2.08-5.25c.05-.17.25-.11.38-.17l3.35,0,.1.1-.05,5-.17.13-3.58,0-.07-.08C164.67,58.55,164.64,56.75,164.7,55.2Z"/>
      <path class="bdf98b3f-1720-45d1-b644-92b47bba60ec" d="M148.25,42.2a1,1,0,0,0-.77-.66c-.52-.07-1.13-.09-1.42.42a20.82,20.82,0,0,1-3.2,6.81.56.56,0,0,0,.1.56,1,1,0,0,0,.67.18c.73-.38,1.1-1.21,1.66-1.71l0,0v8.79a26.5,26.5,0,0,0,.17,3.34,1.93,1.93,0,0,0,1.57.84c3.49,0,6.95,0,10.47-.05l.21-.13a.36.36,0,0,0-.08-.49,15.47,15.47,0,0,0-3.53-.1,1.92,1.92,0,0,1-1-.15l0-3.53.13-.18c1.26-.2,2.53,0,3.82-.14.19-.06.18-.26.22-.42s-.22-.2-.32-.3l-3.45,0c-.14,0-.39,0-.4-.24V51.34c0-.1.16-.11.23-.17l3.45,0,.32-.14c0-.13.21-.24.1-.38s-.22-.22-.32-.32l-3.61,0-.17-.14c0-1.23-.07-2.51,0-3.68l.15-.12,4.17,0c.2-.09.23-.31.35-.47l-.28-.3-5-.07-.1-.07a17.54,17.54,0,0,1,2-2.22,1.06,1.06,0,0,0,.37-1,1.63,1.63,0,0,0-1.29-.55c-1,.05-1.16,1.15-1.62,1.77a7.25,7.25,0,0,0-1.12,2.06l-3.86,0-.06-.07a17.2,17.2,0,0,1,1.39-2.74Zm-.63,4.42c0-.37.44-.17.66-.24.88,0,1.82,0,2.65,0l.07.24c0,1.22,0,2.54,0,3.51a16.85,16.85,0,0,1-3.26.07l-.08-.07Zm0,4.7c.07-.11.19-.11.29-.15a19.37,19.37,0,0,1,3.06.1l-.05,3.9a29.54,29.54,0,0,1-3.26,0l-.07-.1Zm0,5a.27.27,0,0,1,.21-.18,21,21,0,0,1,3.12.1l.08.08c-.05,1.26.1,2.49,0,3.6l-.08.08H147.7l-.12-.08C147.57,58.65,147.48,57.44,147.55,56.29Z"/>
      <rect class="bdf98b3f-1720-45d1-b644-92b47bba60ec" y="27.08" width="24.89" height="1.04"/>
      <rect class="bdf98b3f-1720-45d1-b644-92b47bba60ec" x="51.46" y="27.08" width="10.87" height="1.04"/>
      <rect class="bdf98b3f-1720-45d1-b644-92b47bba60ec" x="81.89" y="27.08" width="7" height="1.04"/>
      <rect class="bdf98b3f-1720-45d1-b644-92b47bba60ec" x="97.58" y="27.32" width="97.42" height="1.04"/>
      <rect class="bdf98b3f-1720-45d1-b644-92b47bba60ec" y="46.4" width="16.44" height="1.04"/>
      <rect class="bdf98b3f-1720-45d1-b644-92b47bba60ec" x="33.35" y="46.4" width="4.11" height="1.04"/>
      <rect class="bdf98b3f-1720-45d1-b644-92b47bba60ec" x="52.91" y="46.4" width="34.05" height="1.04"/>
      <rect class="bdf98b3f-1720-45d1-b644-92b47bba60ec" x="99.28" y="46.4" width="13.77" height="1.04"/>
      <rect class="bdf98b3f-1720-45d1-b644-92b47bba60ec" x="122.22" y="46.4" width="7.97" height="1.04"/>
      <rect class="bdf98b3f-1720-45d1-b644-92b47bba60ec" x="187.91" y="46.4" width="7.09" height="1.04"/>
      <rect class="bdf98b3f-1720-45d1-b644-92b47bba60ec" y="54.13" width="16.69" height="1.04"/>
      <rect class="bdf98b3f-1720-45d1-b644-92b47bba60ec" x="31.42" y="54.13" width="10.87" height="1.04"/>
      <rect class="bdf98b3f-1720-45d1-b644-92b47bba60ec" x="65.71" y="54.13" width="20.77" height="1.04"/>
      <rect class="bdf98b3f-1720-45d1-b644-92b47bba60ec" x="100.48" y="54.13" width="29.71" height="1.04"/>
      <rect class="bdf98b3f-1720-45d1-b644-92b47bba60ec" x="187.91" y="54.13" width="7.09" height="1.04"/>
      <rect class="bdf98b3f-1720-45d1-b644-92b47bba60ec" y="58.23" width="7.75" height="1.04"/>
      <rect class="bdf98b3f-1720-45d1-b644-92b47bba60ec" x="29.49" y="58.23" width="15.7" height="1.04"/>
      <rect class="bdf98b3f-1720-45d1-b644-92b47bba60ec" x="74.16" y="58.23" width="11.59" height="1.04"/>
      <rect class="bdf98b3f-1720-45d1-b644-92b47bba60ec" x="101.69" y="58.23" width="28.74" height="1.04"/>
      <rect class="bdf98b3f-1720-45d1-b644-92b47bba60ec" x="187.42" y="58.23" width="7.58" height="1.04"/>
      <rect class="bdf98b3f-1720-45d1-b644-92b47bba60ec" y="65.24" width="7.99" height="1.04"/>
      <rect class="bdf98b3f-1720-45d1-b644-92b47bba60ec" x="24.41" y="65.24" width="26.81" height="1.04"/>
      <rect class="bdf98b3f-1720-45d1-b644-92b47bba60ec" x="75.61" y="65.24" width="10.63" height="1.04"/>
      <rect class="bdf98b3f-1720-45d1-b644-92b47bba60ec" x="101.21" y="65.24" width="93.79" height="1.04"/>
    </g>
  </g>
</svg>
