<?xml version="1.0" encoding="utf-8"?>
<!-- Generator: Adobe Illustrator 23.0.1, SVG Export Plug-In . SVG Version: 6.00 Build 0)  -->
<svg version="1.1" id="圖層_1" xmlns="http://www.w3.org/2000/svg" xmlns:xlink="http://www.w3.org/1999/xlink" x="0px" y="0px"
	 viewBox="0 0 32 32" style="enable-background:new 0 0 32 32;" xml:space="preserve">
<style type="text/css">
	.st0{fill:#FFFFFF;}
</style>
<path class="st0" d="M16,32c-3.3,0-6.7-1-9.5-3.1c-7.1-5.3-8.6-15.3-3.3-22.4C6.2,2.4,11,0,16,0c0.6,0,1,0.4,1,1s-0.4,1-1,1
	C11.6,2,7.4,4.1,4.8,7.7c-4.6,6.2-3.3,15,2.9,19.6c6.2,4.6,15,3.3,19.6-2.9c4.6-6.2,3.3-15-2.9-19.6c-0.4-0.3-0.5-1-0.2-1.4
	c0.3-0.4,1-0.5,1.4-0.2c7.1,5.3,8.6,15.3,3.3,22.4C25.7,29.8,20.9,32,16,32z"/>
<path class="st0" d="M12.3,24.2c-0.6,0-1-0.4-1-1V9.3c0-0.4,0.2-0.7,0.5-0.9c0.3-0.2,0.7-0.2,1,0L24,15.1c0.3,0.2,0.5,0.5,0.5,0.8
	c0,0.3-0.2,0.7-0.5,0.9l-7.6,5c-0.5,0.3-1.1,0.2-1.4-0.3c-0.3-0.5-0.2-1.1,0.3-1.4l6.3-4.1l-8.2-5v12.2
	C13.3,23.8,12.9,24.2,12.3,24.2z"/>
</svg>
