<?xml version="1.0" encoding="utf-8"?>
<!-- Generator: Adobe Illustrator 23.0.1, SVG Export Plug-In . SVG Version: 6.00 Build 0)  -->
<svg version="1.1" id="圖層_1" xmlns="http://www.w3.org/2000/svg" xmlns:xlink="http://www.w3.org/1999/xlink" x="0px" y="0px"
	 viewBox="0 0 83 83" style="enable-background:new 0 0 83 83;" xml:space="preserve">
<style type="text/css">
	.st0{fill:#FFFFFF;}
</style>
<g>
	<path class="st0" d="M41.4,83c-8.6,0-17.3-2.7-24.7-8.2c-18.3-13.6-22.2-39.7-8.5-58C16,6.3,28.4,0,41.5,0C42.3,0,43,0.7,43,1.5
		S42.3,3,41.5,3C29.4,3,17.8,8.8,10.6,18.6c-12.7,17-9.1,41.2,8,53.9c17,12.7,41.2,9.1,53.9-8c6.1-8.3,8.7-18.4,7.2-28.6
		s-6.9-19.2-15.1-25.3c-0.7-0.5-0.8-1.4-0.3-2.1c0.5-0.7,1.4-0.8,2.1-0.3c8.9,6.6,14.7,16.3,16.3,27.3S81.6,57.4,75,66.3
		C66.7,77.2,54.1,83,41.4,83z"/>
	<path class="st0" d="M31.7,62.3c-0.8,0-1.5-0.7-1.5-1.5V23.7c0-0.5,0.3-1,0.8-1.3s1-0.3,1.5,0l29.7,17.9c0.4,0.3,0.7,0.7,0.7,1.3
		c0,0.5-0.2,1-0.7,1.3L41.8,56c-0.7,0.5-1.6,0.3-2.1-0.4s-0.3-1.6,0.4-2.1l18.4-11.9L33.2,26.3v34.5C33.2,61.6,32.5,62.3,31.7,62.3z
		"/>
</g>
</svg>
