<svg id="圖層_1" data-name="圖層 1" xmlns="http://www.w3.org/2000/svg" viewBox="0 0 593.32 309.96"><defs><style>.cls-1{fill:#d1b158;}</style></defs><title>Off-logo</title><path class="cls-1" d="M277.68,119.65a3,3,0,0,1,3,3V252.37c0,41.56-3.66,47-32.67,48.2v4.08H390.11v-4.09c-33.34-.4-37.16-5.35-37.16-48.19V122.63a3,3,0,0,1,3-3h30.92l15-19.19h-46a3,3,0,0,1-3-3V46.15c0-14.73,1.61-22.42,6.13-29.4,4.17-6.69,10.76-11,16.74-11a13.86,13.86,0,0,1,11.44,6.94c2.41,4.43,3.24,9,4.08,22.46.8,16.38,1.6,23.21,4.49,29,3.94,8.19,11.67,14.27,21.21,16.73L453.8,32.92C443.09,12.92,416.65,0,386.43,0,357.69,0,343,10.73,303.53,60.44L257,119.65Z"/><path class="cls-1" d="M274.7,243.33V125.61H257a6,6,0,0,1-4.68-9.64l20.25-25.76A149.39,149.39,0,0,0,245,61.26C216.44,38,185,27,148.24,27c-35.93,0-67.38,11.44-96.38,34.31C18,88.21,0,125.37,0,168.25c0,43.29,17.15,79.22,51.86,107.4C80,298.52,112.31,310,148.24,310,201.52,310,248.44,283.14,274.7,243.33Zm-80.31,29.06c-7.76,20-25.32,32.26-46.15,32.26-41.65,0-59.62-40.43-59.62-136.4,0-95.56,18-136,59.62-136,42.47,0,60,40.84,60,137.62C208.27,214,203.78,248.7,194.39,272.39Z"/><path class="cls-1" d="M522.52,0c-28.8,0-44,11.43-81.6,60.44l-45.2,59.22h22.8V252.38c0,36.62-2.82,45.14-22.53,47.5a5.05,5.05,0,0,1,.07.68v4.09H526.12v-4.09c-33.2-.4-36.8-5.3-36.8-48.18V119.66h33.6l10.8-19.2h-44.4V46.14c0-14.69,1.6-22.46,6-29.4,4-6.53,10.8-11,16.4-11a14.3,14.3,0,0,1,11.6,6.94c2.4,4.49,3.2,9.39,4,22.46.8,16.74,1.6,23.28,4.4,29,5.2,11,16.8,18,30.4,18,18,0,31.2-12.66,31.2-30.22C593.32,22.87,562.12,0,522.52,0Z"/></svg>